<?xml version="1.0" encoding="UTF-8"?>
<!DOCTYPE svg PUBLIC "-//W3C//DTD SVG 1.1//EN" "http://www.w3.org/Graphics/SVG/1.1/DTD/svg11.dtd">
<!-- Creator: CorelDRAW -->
<svg xmlns="http://www.w3.org/2000/svg" xml:space="preserve" width="50mm" height="50mm" style="shape-rendering:geometricPrecision; text-rendering:geometricPrecision; image-rendering:optimizeQuality; fill-rule:evenodd; clip-rule:evenodd"
viewBox="0 0 50 50"
 xmlns:xlink="http://www.w3.org/1999/xlink">
 <defs>
  <style type="text/css">
   <![CDATA[
    .str1 {stroke:white;stroke-width:0.0762}
    .str0 {stroke:white;stroke-width:1.4}
    .fil0 {fill:none}
    .fil1 {fill:white}
   ]]>
  </style>
 </defs>
 <g id="Layer_x0020_1">
  <metadata id="CorelCorpID_0Corel-Layer"/>
  <path class="fil0 str0" d="M7.2081 5.8933l13.5282 0 0 -2.179c0,-0.2245 0.1833,-0.4078 0.4078,-0.4078l5.6211 0c0.2245,0 0.4078,0.1833 0.4078,0.4078l0 2.179 14.21 0c0.6,0 1.0908,0.5586 1.0908,1.2414l0 38.8964c0,0.6828 -0.4908,1.2414 -1.0908,1.2414l-34.1749 0c-0.5999,0 -1.0907,-0.5586 -1.0907,-1.2414l0 -38.8964c0,-0.6828 0.4908,-1.2414 1.0907,-1.2414z"/>
  <rect class="fil1 str1" x="9.19704" y="13.3451" width="28.0545" height="4.12923"/>
  <rect class="fil1 str1" x="9.19704" y="22.8583" width="22.8322" height="4.12923"/>
  <rect class="fil1 str1" x="9.19704" y="31.7403" width="28.0545" height="4.12923"/>
  <rect class="fil1 str1" x="9.19704" y="40" width="28.0545" height="4.12923"/>
 </g>
</svg>
